<svg width="143" height="143" viewBox="0 0 143 143" fill="none" xmlns="http://www.w3.org/2000/svg">
<path fill-rule="evenodd" clip-rule="evenodd" d="M71.5 104C75.0899 104 78 106.91 78 110.5V136.5C78 140.09 75.0899 143 71.5 143C67.9101 143 65 140.09 65 136.5V110.5C65 106.91 67.9101 104 71.5 104Z" fill="black"/>
<path fill-rule="evenodd" clip-rule="evenodd" d="M71.5 0C75.0899 0 78 2.91015 78 6.5V32.5C78 36.0899 75.0899 39 71.5 39C67.9101 39 65 36.0899 65 32.5V6.5C65 2.91015 67.9101 0 71.5 0Z" fill="black"/>
<path fill-rule="evenodd" clip-rule="evenodd" d="M104 71.5C104 67.9101 106.91 65 110.5 65L136.5 65C140.09 65 143 67.9101 143 71.5C143 75.0898 140.09 78 136.5 78L110.5 78C106.91 78 104 75.0899 104 71.5Z" fill="black"/>
<path fill-rule="evenodd" clip-rule="evenodd" d="M-2.84124e-07 71.5C-4.41041e-07 67.9101 2.91015 65 6.5 65L32.5 65C36.0899 65 39 67.9101 39 71.5C39 75.0898 36.0899 78 32.5 78L6.5 78C2.91015 78 -1.27207e-07 75.0899 -2.84124e-07 71.5Z" fill="black"/>
<path fill-rule="evenodd" clip-rule="evenodd" d="M94.481 48.519C91.9425 45.9806 91.9425 41.8651 94.481 39.3267L112.866 20.9419C115.404 18.4035 119.52 18.4035 122.058 20.9419C124.597 23.4803 124.597 27.5959 122.058 30.1343L103.673 48.519C101.135 51.0574 97.0194 51.0574 94.481 48.519Z" fill="black"/>
<path fill-rule="evenodd" clip-rule="evenodd" d="M20.9419 122.058C18.4035 119.52 18.4035 115.404 20.9419 112.866L39.3267 94.4809C41.8651 91.9425 45.9806 91.9425 48.5191 94.4809C51.0575 97.0193 51.0575 101.135 48.5191 103.673L30.1343 122.058C27.5959 124.597 23.4803 124.597 20.9419 122.058Z" fill="black"/>
<path fill-rule="evenodd" clip-rule="evenodd" d="M48.519 48.519C45.9806 51.0575 41.8651 51.0575 39.3267 48.519L20.9419 30.1343C18.4035 27.5959 18.4035 23.4803 20.9419 20.9419C23.4803 18.4035 27.5959 18.4035 30.1343 20.9419L48.519 39.3267C51.0574 41.8651 51.0574 45.9806 48.519 48.519Z" fill="black"/>
<path fill-rule="evenodd" clip-rule="evenodd" d="M122.058 122.058C119.52 124.597 115.404 124.597 112.866 122.058L94.4809 103.673C91.9425 101.135 91.9425 97.0194 94.4809 94.4809C97.0193 91.9425 101.135 91.9425 103.673 94.4809L122.058 112.866C124.597 115.404 124.597 119.52 122.058 122.058Z" fill="black"/>
</svg>
